<?xml version="1.0" ?>
<svg xmlns="http://www.w3.org/2000/svg" width="921" height="257" viewBox="0 0 921 257">
  <g fill="none" stroke="#000" stroke-width="2" stroke-linecap="round" stroke-linejoin="round">
    <path d="M 483 247 L 484 247"/>
    <path d="M 348 247 L 349 247"/>
    <path d="M 291 244 L 407 244 L 410 247 L 407 244 L 292 244"/>
    <path d="M 247 244 L 248 244"/>
    <path d="M 253 241 L 254 241"/>
    <path d="M 415 239 L 415 245 L 414 246 L 412 243 L 407 241 L 375 241 L 407 241 L 410 242 L 413 246 L 415 246 L 415 240"/>
    <path d="M 182 238 L 180 239 L 178 243 L 179 245 L 190 245 L 179 245 L 178 243 L 182 238 L 188 238 L 190 240 L 190 242 L 193 243 L 190 242 L 190 239 L 183 238"/>
    <path d="M 297 237 L 295 239 L 295 241 L 366 241 L 296 241 L 295 240 L 296 238"/>
    <path d="M 390 233 L 390 235 L 408 235 L 413 237 L 412 239 L 409 238 L 383 238 L 409 238 L 413 239 L 412 236 L 408 235 L 391 235 L 390 234"/>
    <path d="M 489 229 L 485 233 L 443 232 L 440 235 L 441 242 L 576 243 L 578 239 L 578 236 L 576 235 L 489 235 L 488 234 L 490 232 L 490 230"/>
    <path d="M 341 228 L 338 231 L 339 235 L 382 236 L 382 234 L 385 231 L 390 230 L 387 230 L 383 232 L 381 236 L 372 236 L 371 235 L 340 235 L 338 233 L 338 231 L 340 229"/>
    <path d="M 380 225 L 373 227 L 361 227 L 360 228 L 345 228 L 373 227 L 380 225 L 387 225 L 390 228 L 392 228 L 387 225 L 381 225"/>
    <path d="M 297 222 L 295 224 L 295 230 L 295 224 L 297 222 L 304 222 L 305 223 L 305 232 L 301 234 L 296 233 L 296 234 L 305 233 L 305 223 L 304 222 L 298 222"/>
    <path d="M 542 219 L 540 221 L 539 228 L 540 230 L 545 231 L 559 231 L 560 230 L 560 221 L 557 219 L 543 219"/>
    <path d="M 310 216 L 312 221 L 319 227 L 324 228 L 334 227 L 335 228 L 335 235 L 337 238 L 375 239 L 338 238 L 335 235 L 335 228 L 334 227 L 331 228 L 319 227 L 313 222 L 310 217"/>
    <path d="M 255 216 L 258 226 L 259 235 L 262 236 L 261 229 L 262 235 L 261 236 L 259 235 L 258 226 L 255 217"/>
    <path d="M 385 211 L 381 214 L 381 216 L 384 220 L 383 222 L 364 223 L 363 224 L 344 226 L 363 224 L 364 223 L 384 222 L 381 214 L 385 211 L 386 212"/>
    <path d="M 396 199 L 394 201 L 404 206 L 405 209 L 401 212 L 393 212 L 401 212 L 405 210 L 405 207 L 403 205 L 394 201 L 396 199 L 399 199 L 404 202 L 410 209 L 409 219 L 403 225 L 399 226 L 393 226 L 392 225 L 393 223 L 396 223 L 396 219 L 393 215 L 389 213 L 396 220 L 396 222 L 393 223 L 392 226 L 399 226 L 405 224 L 408 221 L 410 217 L 410 209 L 406 203 L 399 199 L 397 199"/>
    <path d="M 444 196 L 441 199 L 441 215 L 442 217 L 457 217 L 458 218 L 470 217 L 471 212 L 462 211 L 458 208 L 457 203 L 458 196 L 445 196"/>
    <path d="M 499 195 L 496 197 L 499 195 L 501 195 L 503 197 L 503 210 L 502 211 L 503 230 L 502 231 L 496 231 L 495 229 L 496 231 L 503 231 L 503 219 L 502 218 L 503 196 L 500 195"/>
    <path d="M 517 194 L 514 197 L 514 231 L 520 231 L 521 195 L 518 194"/>
    <path d="M 348 194 L 351 199 L 351 213 L 347 221 L 342 226 L 343 224 L 346 223 L 351 213 L 351 199 L 349 194"/>
    <path d="M 350 192 L 372 199 L 383 201 L 386 203 L 385 206 L 387 210 L 390 211 L 386 208 L 385 206 L 386 203 L 383 201 L 372 199 L 351 192"/>
    <path d="M 197 190 L 196 191 L 196 206 L 194 216 L 194 230 L 192 238 L 193 241 L 198 241 L 194 241 L 192 239 L 194 230 L 194 216 L 195 215 L 196 191 L 197 190 L 199 191 L 243 191 L 247 197 L 248 204 L 250 207 L 250 211 L 256 230 L 255 234 L 239 233 L 238 234 L 200 235 L 198 236 L 198 239 L 253 239 L 254 238 L 259 238 L 254 238 L 253 239 L 199 239 L 198 237 L 200 235 L 238 234 L 239 233 L 256 234 L 256 230 L 245 192 L 243 191 L 200 191 L 198 190"/>
    <path d="M 331 188 L 318 195 L 315 201 L 320 194 L 328 189 L 332 188 L 338 192 L 343 197 L 345 201 L 345 214 L 337 222 L 324 222 L 315 213 L 315 210 L 315 213 L 317 217 L 323 222 L 337 222 L 343 218 L 345 215 L 345 201 L 342 195 L 332 188"/>
    <path d="M 289 188 L 283 196 L 281 201 L 281 208 L 288 215 L 290 219 L 290 222 L 288 223 L 285 220 L 282 221 L 282 232 L 281 236 L 279 238 L 270 238 L 268 236 L 263 238 L 265 238 L 266 236 L 269 238 L 279 238 L 281 237 L 282 221 L 284 220 L 286 222 L 290 223 L 289 216 L 281 208 L 281 201 L 283 196 L 290 188 L 292 196 L 292 209 L 293 210 L 294 221 L 292 224 L 293 233 L 285 235 L 285 238 L 290 240 L 289 242 L 288 242 L 290 242 L 290 240 L 287 239 L 285 236 L 287 234 L 293 234 L 292 224 L 294 221 L 293 210 L 292 209 L 292 196 L 291 195 L 291 188 L 290 188"/>
    <path d="M 245 182 L 243 184 L 203 185 L 201 187 L 202 188 L 233 187 L 234 188 L 244 188 L 247 191 L 244 188 L 234 188 L 233 187 L 225 187 L 224 188 L 202 188 L 201 187 L 203 185 L 244 184 L 246 182 L 249 189 L 247 185 L 247 182 L 246 182"/>
    <path d="M 310 181 L 307 184 L 307 189 L 306 190 L 306 202 L 308 203 L 306 202 L 307 184 L 311 181 L 312 182 L 322 183 L 323 185 L 313 189 L 310 192 L 309 197 L 309 194 L 315 188 L 323 185 L 322 183 L 312 182 L 311 181"/>
    <path d="M 492 178 L 491 179 L 491 220 L 490 221 L 491 228 L 493 228 L 493 220 L 493 227 L 492 228 L 490 226 L 490 221 L 491 220 L 491 179 L 492 178 L 493 180 L 493 178"/>
    <path d="M 575 175 L 574 176 L 574 229 L 575 230 L 582 230 L 581 177 L 576 175"/>
    <path d="M 597 174 L 592 179 L 592 247 L 593 248 L 601 248 L 601 246 L 599 244 L 599 174 L 598 174"/>
    <path d="M 510 174 L 506 176 L 505 178 L 505 194 L 506 195 L 506 224 L 505 178 L 510 174 L 512 176 L 512 190 L 513 193 L 511 196 L 511 229 L 510 230 L 506 229 L 506 230 L 511 230 L 511 196 L 513 194 L 512 175 L 511 175"/>
    <path d="M 504 173 L 502 178 L 502 191 L 501 192 L 496 191 L 496 177 L 494 175 L 496 177 L 496 191 L 497 192 L 502 192 L 502 178 L 504 174"/>
    <path d="M 592 171 L 582 173 L 584 176 L 584 194 L 585 195 L 585 232 L 582 233 L 580 236 L 582 233 L 585 233 L 585 195 L 584 194 L 584 175 L 582 173 L 592 171 L 593 172 L 589 177 L 589 248 L 589 177 L 593 172"/>
    <path d="M 475 170 L 474 171 L 474 195 L 475 196 L 474 220 L 474 207 L 475 206 L 474 171 L 476 170 L 484 176 L 484 229 L 483 230 L 475 230 L 474 229 L 474 227 L 475 230 L 484 230 L 484 175 L 479 173 L 476 170"/>
    <path d="M 527 169 L 525 171 L 527 169 L 537 171 L 537 178 L 536 179 L 536 229 L 537 231 L 536 232 L 524 232 L 523 231 L 524 230 L 524 194 L 523 193 L 525 190 L 525 177 L 524 174 L 525 177 L 525 190 L 523 193 L 524 194 L 524 230 L 523 231 L 524 232 L 537 232 L 536 229 L 536 179 L 537 178 L 537 171 L 528 169"/>
    <path d="M 518 164 L 517 165 L 490 167 L 486 171 L 487 172 L 493 172 L 498 170 L 509 170 L 514 168 L 520 168 L 520 165 L 519 165"/>
    <path d="M 542 163 L 539 166 L 540 171 L 540 214 L 541 215 L 546 214 L 545 209 L 545 164 L 543 163"/>
    <path d="M 551 162 L 548 165 L 549 216 L 556 216 L 557 217 L 560 217 L 560 163 L 552 162"/>
    <path d="M 519 158 L 520 159 L 519 161 L 489 163 L 479 165 L 476 167 L 474 166 L 474 163 L 476 161 L 486 161 L 476 161 L 474 163 L 474 166 L 477 167 L 479 165 L 489 163 L 519 161 L 520 158"/>
    <path d="M 775 142 L 773 144 L 774 148 L 765 152 L 761 156 L 759 162 L 759 222 L 760 223 L 760 229 L 759 230 L 759 245 L 755 248 L 755 250 L 793 251 L 793 247 L 790 243 L 790 191 L 789 190 L 788 162 L 787 161 L 787 156 L 777 146 L 777 143 L 776 143"/>
    <path d="M 528 136 L 525 139 L 524 164 L 537 166 L 537 151 L 536 150 L 537 148 L 537 137 L 536 136 L 529 136"/>
    <path d="M 464 132 L 461 135 L 461 150 L 460 151 L 460 173 L 461 175 L 471 175 L 471 138 L 472 133 L 465 132"/>
    <path d="M 366 105 L 364 106 L 361 113 L 361 117 L 358 127 L 360 128 L 358 127 L 363 108 L 366 105 L 367 108 L 362 122 L 367 106"/>
    <path d="M 298 100 L 300 104 L 301 178 L 302 179 L 302 188 L 303 189 L 303 218 L 302 219 L 297 218 L 299 206 L 297 219 L 303 219 L 303 189 L 302 188 L 302 179 L 301 178 L 300 103 L 298 101"/>
    <path d="M 737 99 L 736 100 L 722 100 L 721 101 L 605 103 L 601 106 L 601 124 L 602 125 L 602 243 L 603 245 L 718 247 L 719 248 L 740 248 L 741 250 L 740 251 L 591 251 L 590 250 L 590 251 L 741 251 L 740 248 L 675 247 L 674 246 L 628 246 L 627 245 L 604 245 L 602 243 L 602 125 L 601 124 L 601 106 L 605 103 L 721 101 L 722 100 L 736 100 L 737 99 L 740 102 L 741 112 L 742 113 L 742 122 L 743 123 L 743 248 L 743 123 L 742 122 L 742 113 L 741 112 L 740 101 L 738 100"/>
    <path d="M 654 97 L 653 98 L 609 98 L 653 98 L 654 97 L 727 97 L 655 97"/>
    <path d="M 562 84 L 559 88 L 560 92 L 560 156 L 566 161 L 566 223 L 563 225 L 563 232 L 571 232 L 571 89 L 572 88 L 571 84 L 563 84"/>
    <path d="M 291 84 L 289 85 L 287 89 L 287 96 L 288 98 L 291 97 L 291 91 L 292 90 L 295 93 L 295 102 L 293 105 L 293 119 L 294 120 L 294 181 L 299 186 L 298 188 L 297 187 L 294 188 L 294 196 L 294 188 L 296 187 L 298 189 L 298 201 L 296 206 L 295 206 L 297 206 L 298 201 L 298 188 L 299 187 L 300 188 L 299 185 L 294 181 L 294 120 L 293 119 L 293 105 L 295 103 L 295 93 L 294 90 L 292 90 L 291 91 L 291 97 L 289 98 L 287 96 L 287 89 L 291 84 L 296 85 L 304 90 L 304 89 L 292 84"/>
    <path d="M 126 84 L 128 86 L 128 98 L 123 103 L 124 134 L 123 135 L 122 220 L 132 227 L 132 233 L 125 238 L 125 244 L 127 247 L 127 249 L 125 251 L 0 251 L 126 251 L 127 250 L 127 246 L 125 244 L 125 238 L 127 236 L 130 236 L 132 233 L 131 225 L 127 224 L 122 220 L 123 135 L 124 134 L 123 103 L 128 98 L 128 86 L 127 84"/>
    <path d="M 659 79 L 689 80 L 707 89 L 710 89 L 712 91 L 719 92 L 722 94 L 730 95 L 731 97 L 730 95 L 722 94 L 719 92 L 707 89 L 689 80 L 660 79"/>
    <path d="M 209 76 L 206 80 L 204 114 L 203 115 L 201 148 L 200 149 L 199 170 L 198 171 L 197 182 L 200 183 L 201 182 L 214 182 L 215 181 L 241 181 L 240 173 L 235 160 L 232 145 L 229 139 L 224 118 L 222 115 L 222 112 L 219 105 L 219 101 L 214 88 L 214 84 L 212 81 L 212 78 L 210 77"/>
    <path d="M 218 73 L 217 75 L 219 78 L 220 86 L 222 89 L 225 102 L 227 105 L 228 112 L 230 115 L 230 119 L 232 122 L 233 129 L 235 132 L 235 136 L 237 139 L 238 146 L 240 149 L 241 154 L 240 149 L 238 146 L 237 139 L 235 136 L 235 132 L 233 129 L 232 122 L 230 119 L 230 115 L 228 112 L 227 105 L 222 92 L 222 88 L 220 86 L 219 78 L 217 75 L 219 73 L 221 75 L 234 119 L 235 126 L 237 129 L 237 132 L 237 129 L 235 126 L 234 119 L 227 98 L 224 84 L 222 81 L 221 75 L 219 73"/>
    <path d="M 331 69 L 330 74 L 331 77 L 357 83 L 363 87 L 363 89 L 362 90 L 353 89 L 329 81 L 325 88 L 327 91 L 331 91 L 334 93 L 340 94 L 352 99 L 355 99 L 357 101 L 362 101 L 367 86 L 370 82 L 371 83 L 371 90 L 369 94 L 371 95 L 369 94 L 371 90 L 371 82 L 369 82 L 362 101 L 358 101 L 355 99 L 352 99 L 349 97 L 346 97 L 331 91 L 327 91 L 325 88 L 329 81 L 349 88 L 363 90 L 363 86 L 357 83 L 332 77 L 330 75 L 331 70"/>
    <path d="M 201 68 L 198 71 L 198 77 L 197 78 L 196 101 L 194 110 L 194 123 L 193 124 L 193 135 L 191 145 L 191 157 L 189 167 L 189 179 L 188 180 L 188 192 L 186 202 L 186 215 L 184 224 L 184 233 L 187 235 L 190 235 L 191 209 L 193 199 L 194 174 L 196 165 L 196 152 L 197 151 L 197 141 L 198 140 L 198 131 L 199 130 L 199 118 L 201 108 L 203 79 L 207 74 L 209 73 L 214 75 L 216 72 L 215 69 L 216 72 L 214 75 L 209 73 L 205 75 L 203 79 L 201 108 L 199 118 L 199 130 L 198 131 L 198 140 L 197 141 L 197 151 L 196 152 L 196 165 L 194 174 L 193 199 L 191 209 L 191 226 L 190 227 L 190 234 L 187 235 L 184 233 L 184 224 L 186 215 L 186 202 L 188 192 L 189 167 L 190 166 L 191 145 L 193 135 L 197 78 L 198 77 L 198 71 L 201 68 L 202 69 L 207 69 L 202 69"/>
    <path d="M 126 68 L 127 80 L 126 81 L 121 81 L 119 83 L 119 90 L 121 91 L 119 90 L 119 83 L 121 81 L 127 81 L 126 69"/>
    <path d="M 199 65 L 196 67 L 194 71 L 194 83 L 193 84 L 193 93 L 192 94 L 192 103 L 191 104 L 191 118 L 189 127 L 188 151 L 186 161 L 186 174 L 184 184 L 183 209 L 181 218 L 181 235 L 177 237 L 175 242 L 175 247 L 177 249 L 511 250 L 512 251 L 583 251 L 584 252 L 587 251 L 587 248 L 584 246 L 579 247 L 584 246 L 587 249 L 586 252 L 583 251 L 512 251 L 511 250 L 177 249 L 175 247 L 175 242 L 176 239 L 181 235 L 181 218 L 183 209 L 184 184 L 186 174 L 186 161 L 188 151 L 189 127 L 191 118 L 191 104 L 192 103 L 192 94 L 193 93 L 193 84 L 194 83 L 194 71 L 199 65 L 201 66 L 200 65"/>
    <path d="M 668 62 L 670 64 L 669 65 L 663 65 L 660 67 L 660 69 L 682 68 L 685 74 L 684 77 L 679 77 L 678 76 L 660 76 L 659 77 L 660 76 L 685 77 L 685 74 L 682 68 L 665 68 L 661 69 L 660 67 L 663 65 L 670 65 L 669 62"/>
    <path d="M 659 62 L 655 65 L 657 69 L 656 72 L 657 77 L 654 80 L 612 94 L 608 96 L 607 98 L 608 96 L 656 79 L 657 69 L 655 65 L 659 62 L 665 62 L 660 62"/>
    <path d="M 383 59 L 374 85 L 378 75 L 379 69 L 381 66 L 381 63 L 383 60"/>
    <path d="M 382 57 L 378 64 L 375 74 L 372 78 L 366 78 L 363 76 L 360 76 L 333 67 L 344 71 L 347 71 L 350 73 L 363 76 L 366 78 L 373 78 L 381 58 L 383 57"/>
    <path d="M 204 55 L 202 57 L 204 62 L 210 62 L 213 60 L 210 62 L 205 62 L 202 59 L 202 57 L 204 55 L 206 55 L 228 63 L 231 63 L 234 65 L 237 65 L 243 68 L 256 71 L 259 73 L 263 73 L 275 78 L 283 79 L 287 82 L 284 89 L 284 97 L 290 103 L 291 183 L 282 191 L 278 199 L 277 206 L 279 212 L 279 227 L 277 235 L 271 235 L 268 232 L 268 228 L 266 225 L 263 210 L 261 207 L 255 182 L 253 179 L 250 164 L 248 161 L 247 154 L 243 143 L 242 136 L 240 133 L 240 129 L 237 122 L 237 118 L 235 115 L 234 108 L 230 97 L 229 90 L 227 87 L 224 73 L 218 67 L 217 61 L 216 61 L 218 67 L 223 72 L 225 77 L 227 87 L 229 90 L 230 97 L 234 108 L 235 115 L 237 118 L 237 122 L 240 129 L 240 133 L 242 136 L 243 143 L 247 154 L 248 161 L 250 164 L 253 179 L 255 182 L 261 207 L 263 210 L 266 225 L 270 235 L 278 235 L 278 228 L 279 227 L 279 212 L 277 206 L 278 199 L 281 193 L 291 184 L 290 102 L 284 97 L 284 89 L 287 84 L 287 81 L 283 79 L 275 78 L 263 73 L 259 73 L 256 71 L 243 68 L 237 65 L 234 65 L 231 63 L 228 63 L 205 55"/>
    <path d="M 767 43 L 766 44 L 676 44 L 674 47 L 674 56 L 673 58 L 674 60 L 691 60 L 694 63 L 694 65 L 689 70 L 690 76 L 692 78 L 698 78 L 704 81 L 707 81 L 709 83 L 715 84 L 728 90 L 744 95 L 748 99 L 748 102 L 746 105 L 746 116 L 747 117 L 747 178 L 748 179 L 748 191 L 747 192 L 747 200 L 748 201 L 747 251 L 746 252 L 744 251 L 744 252 L 747 252 L 747 211 L 748 210 L 747 192 L 748 191 L 748 179 L 747 178 L 747 117 L 746 116 L 746 105 L 748 102 L 748 98 L 744 95 L 728 90 L 707 81 L 704 81 L 698 78 L 692 78 L 690 76 L 689 70 L 694 66 L 693 61 L 691 60 L 675 60 L 673 58 L 674 56 L 674 47 L 677 44 L 766 44 L 769 43 L 771 45 L 772 136 L 768 138 L 767 140 L 770 143 L 770 146 L 763 149 L 758 154 L 756 158 L 756 243 L 752 246 L 750 251 L 751 253 L 772 253 L 773 254 L 783 254 L 784 255 L 790 255 L 797 252 L 799 253 L 829 253 L 830 254 L 920 255 L 830 254 L 829 253 L 799 253 L 798 252 L 790 255 L 784 255 L 783 254 L 773 254 L 772 253 L 752 253 L 750 251 L 751 248 L 756 244 L 756 158 L 765 148 L 770 147 L 770 142 L 767 140 L 770 137 L 772 137 L 771 44 L 768 43"/>
    <path d="M 157 42 L 149 51 L 133 64 L 143 57 L 157 43"/>
    <path d="M 162 40 L 159 45 L 139 64 L 134 67 L 129 67 L 128 66 L 128 67 L 134 67 L 141 63 L 158 47 L 162 40 L 168 44 L 198 53 L 199 54 L 199 60 L 203 64 L 199 60 L 199 54 L 198 53 L 168 44 L 163 41"/>
    <path d="M 156 40 L 147 49 L 131 62 L 149 48 L 157 40"/>
    <path d="M 673 39 L 668 44 L 668 58 L 667 59 L 657 59 L 652 61 L 651 63 L 653 68 L 653 76 L 652 77 L 616 89 L 601 97 L 597 109 L 597 122 L 598 123 L 598 168 L 597 169 L 585 168 L 580 169 L 577 171 L 574 170 L 574 128 L 575 127 L 575 91 L 574 90 L 580 84 L 580 81 L 577 80 L 574 77 L 575 76 L 575 69 L 569 67 L 559 67 L 557 68 L 555 71 L 555 80 L 552 83 L 556 86 L 556 156 L 557 157 L 556 159 L 541 159 L 540 158 L 540 138 L 542 136 L 546 135 L 546 131 L 543 130 L 540 127 L 540 114 L 537 111 L 533 110 L 525 111 L 521 115 L 522 128 L 516 131 L 515 133 L 516 135 L 520 136 L 522 138 L 522 154 L 521 155 L 506 155 L 505 156 L 497 156 L 488 158 L 477 158 L 476 157 L 477 155 L 477 132 L 474 128 L 474 126 L 469 124 L 459 124 L 457 125 L 455 128 L 456 131 L 456 181 L 455 182 L 456 192 L 455 193 L 449 193 L 448 192 L 441 194 L 437 193 L 434 196 L 434 246 L 433 247 L 420 247 L 418 245 L 418 229 L 417 228 L 412 227 L 409 229 L 403 230 L 406 230 L 412 227 L 415 227 L 418 230 L 418 245 L 419 247 L 434 247 L 434 196 L 437 193 L 441 194 L 448 192 L 449 193 L 455 193 L 456 192 L 455 188 L 455 182 L 456 181 L 456 131 L 455 128 L 459 124 L 472 125 L 477 132 L 477 155 L 476 156 L 477 158 L 488 158 L 489 157 L 505 156 L 506 155 L 522 155 L 522 137 L 518 136 L 515 133 L 518 130 L 522 129 L 521 115 L 525 111 L 530 111 L 531 110 L 537 111 L 540 114 L 540 127 L 541 129 L 546 132 L 546 134 L 540 138 L 540 158 L 541 159 L 557 159 L 556 156 L 556 85 L 552 83 L 555 80 L 555 71 L 559 67 L 573 68 L 575 70 L 575 76 L 574 77 L 576 80 L 578 80 L 580 82 L 574 90 L 575 91 L 574 170 L 577 171 L 580 169 L 585 168 L 598 169 L 597 109 L 598 105 L 600 103 L 600 99 L 611 91 L 652 77 L 653 76 L 653 67 L 651 65 L 651 63 L 654 60 L 657 59 L 668 59 L 668 44 L 673 39 L 775 39 L 777 41 L 777 117 L 776 118 L 776 135 L 777 137 L 781 137 L 783 139 L 783 141 L 780 144 L 781 146 L 787 148 L 794 156 L 794 170 L 795 171 L 795 241 L 796 243 L 800 246 L 802 250 L 813 249 L 814 250 L 883 250 L 884 251 L 920 251 L 814 250 L 813 249 L 802 250 L 800 246 L 795 241 L 795 171 L 794 170 L 794 156 L 789 149 L 783 147 L 780 144 L 783 142 L 783 138 L 778 137 L 776 135 L 776 118 L 777 117 L 777 41 L 775 39 L 674 39"/>
    <path d="M 169 21 L 163 32 L 163 37 L 167 40 L 170 40 L 194 48 L 197 50 L 203 50 L 205 48 L 209 50 L 213 50 L 216 52 L 219 52 L 226 55 L 239 58 L 242 60 L 265 66 L 274 70 L 287 73 L 289 75 L 297 77 L 301 81 L 301 84 L 303 86 L 301 84 L 301 80 L 299 78 L 287 73 L 284 73 L 281 71 L 274 70 L 265 66 L 262 66 L 255 63 L 242 60 L 239 58 L 216 52 L 213 50 L 209 50 L 205 48 L 202 50 L 197 50 L 194 48 L 170 40 L 167 40 L 163 37 L 163 32 L 169 21 L 174 22 L 177 24 L 190 27 L 193 29 L 206 32 L 209 34 L 223 37 L 226 39 L 249 45 L 252 47 L 265 50 L 268 52 L 275 53 L 285 57 L 298 60 L 301 62 L 324 68 L 328 71 L 327 78 L 322 87 L 316 86 L 308 82 L 305 82 L 305 84 L 306 82 L 308 82 L 316 86 L 323 87 L 324 82 L 327 79 L 327 74 L 328 73 L 328 70 L 324 68 L 301 62 L 298 60 L 285 57 L 282 55 L 268 52 L 265 50 L 262 50 L 249 45 L 226 39 L 223 37 L 209 34 L 206 32 L 183 26 L 170 21"/>
    <path d="M 168 14 L 173 14 L 176 16 L 184 17 L 187 19 L 200 22 L 213 27 L 217 27 L 220 29 L 233 32 L 236 34 L 249 37 L 252 39 L 259 40 L 262 42 L 275 45 L 278 47 L 291 50 L 294 52 L 301 53 L 310 57 L 317 58 L 320 60 L 323 60 L 330 63 L 343 66 L 346 68 L 359 71 L 368 75 L 371 75 L 378 56 L 383 51 L 387 54 L 387 58 L 384 64 L 384 67 L 381 73 L 381 76 L 379 79 L 373 99 L 371 102 L 371 105 L 366 118 L 363 130 L 360 133 L 357 133 L 354 130 L 358 113 L 360 110 L 360 105 L 359 104 L 337 98 L 321 91 L 313 89 L 308 86 L 306 88 L 307 92 L 303 101 L 303 107 L 304 108 L 304 158 L 305 159 L 305 177 L 304 178 L 305 179 L 309 178 L 319 179 L 325 181 L 329 185 L 343 186 L 350 189 L 354 189 L 361 192 L 382 197 L 385 199 L 391 199 L 396 196 L 402 197 L 414 209 L 413 219 L 408 225 L 403 228 L 399 228 L 403 228 L 410 224 L 414 216 L 414 209 L 412 205 L 404 198 L 400 196 L 396 196 L 390 199 L 385 199 L 382 197 L 379 197 L 372 194 L 368 194 L 354 189 L 350 189 L 343 186 L 330 185 L 327 182 L 319 179 L 313 179 L 312 178 L 305 179 L 304 178 L 305 177 L 305 159 L 304 158 L 304 108 L 303 107 L 303 101 L 307 92 L 306 88 L 308 86 L 313 89 L 321 91 L 337 98 L 359 104 L 360 105 L 360 110 L 358 113 L 354 130 L 355 132 L 360 133 L 363 130 L 366 118 L 371 105 L 371 102 L 373 100 L 373 97 L 387 58 L 387 54 L 383 51 L 379 54 L 372 73 L 370 75 L 368 75 L 359 71 L 356 71 L 343 66 L 320 60 L 317 58 L 310 57 L 301 53 L 294 52 L 291 50 L 278 47 L 275 45 L 262 42 L 259 40 L 252 39 L 249 37 L 236 34 L 233 32 L 220 29 L 217 27 L 213 27 L 200 22 L 187 19 L 184 17 L 169 14"/>
    <path d="M 148 4 L 139 11 L 127 33 L 124 42 L 121 58 L 124 64 L 127 64 L 136 54 L 153 40 L 158 29 L 163 13 L 163 8 L 155 4 L 149 4"/>
    <path d="M 147 0 L 146 2 L 141 4 L 132 15 L 123 33 L 118 53 L 118 60 L 120 65 L 118 68 L 118 80 L 116 83 L 116 89 L 117 90 L 117 96 L 116 97 L 118 101 L 120 102 L 120 119 L 119 120 L 119 222 L 112 224 L 109 228 L 112 235 L 116 238 L 115 246 L 113 248 L 108 247 L 14 247 L 13 248 L 3 247 L 0 248 L 3 247 L 13 248 L 14 247 L 108 247 L 109 248 L 114 248 L 116 245 L 116 237 L 111 233 L 109 228 L 114 223 L 119 222 L 119 120 L 120 119 L 120 102 L 116 97 L 117 96 L 116 83 L 118 80 L 118 68 L 120 66 L 120 63 L 118 60 L 118 53 L 123 33 L 131 17 L 135 11 L 143 3 L 147 1"/>
  </g>
</svg>
