<?xml version="1.0" ?>
<svg xmlns="http://www.w3.org/2000/svg" viewBox="0 0 1536 1024" width="1536" height="1024">
  <g fill="none" stroke="#000" stroke-width="2" stroke-linecap="round" stroke-linejoin="round">
    <path d="M 1153 328 L 1152 329 L 1150 329 L 1146 333 L 1146 334 L 1145 335 L 1145 336 L 1144 337 L 1144 370 L 1143 371 L 1129 371 L 1128 372 L 1118 372 L 1117 373 L 1114 373 L 1112 375 L 1112 384 L 1114 386 L 1116 386 L 1117 387 L 1117 389 L 1118 390 L 1118 398 L 1116 400 L 1115 400 L 1114 401 L 1112 401 L 1111 402 L 1109 402 L 1108 403 L 1107 403 L 1106 404 L 1104 404 L 1103 405 L 1101 405 L 1100 406 L 1099 406 L 1098 407 L 1096 407 L 1095 408 L 1094 408 L 1093 409 L 1091 409 L 1090 410 L 1088 410 L 1087 411 L 1086 411 L 1085 412 L 1083 412 L 1082 413 L 1081 413 L 1080 414 L 1078 414 L 1077 415 L 1075 415 L 1074 416 L 1073 416 L 1072 417 L 1070 417 L 1069 418 L 1068 418 L 1067 419 L 1065 419 L 1064 420 L 1062 420 L 1061 421 L 1060 421 L 1059 422 L 1057 422 L 1056 423 L 1055 423 L 1054 424 L 1052 424 L 1051 425 L 1050 425 L 1049 426 L 1047 426 L 1046 427 L 1045 427 L 1044 428 L 1042 428 L 1041 429 L 1040 429 L 1039 430 L 1037 430 L 1036 431 L 1035 431 L 1034 432 L 1032 432 L 1031 433 L 1030 433 L 1029 434 L 1027 434 L 1026 435 L 1025 435 L 1024 436 L 1023 436 L 1022 437 L 1021 437 L 1020 438 L 1019 438 L 1018 439 L 1016 439 L 1015 440 L 1014 440 L 1013 441 L 1012 441 L 1007 446 L 1007 447 L 1006 448 L 1006 449 L 1005 450 L 1005 451 L 1004 452 L 1004 454 L 1003 455 L 1003 459 L 1002 460 L 1002 467 L 1001 468 L 1001 730 L 1002 731 L 1002 732 L 1003 733 L 1003 734 L 1004 735 L 1005 735 L 1006 736 L 1007 736 L 1008 737 L 1271 737 L 1272 736 L 1273 736 L 1274 735 L 1274 731 L 1272 729 L 1267 729 L 1266 728 L 1265 728 L 1264 729 L 1259 729 L 1258 728 L 1166 728 L 1165 727 L 1017 727 L 1016 726 L 1016 467 L 1017 466 L 1017 465 L 1019 463 L 1020 463 L 1022 461 L 1029 461 L 1030 462 L 1091 462 L 1092 463 L 1097 463 L 1098 462 L 1103 462 L 1104 463 L 1249 463 L 1250 462 L 1270 462 L 1270 459 L 1059 459 L 1058 458 L 1057 458 L 1056 459 L 1055 458 L 1020 458 L 1015 463 L 1015 464 L 1014 465 L 1014 467 L 1013 468 L 1013 727 L 1016 730 L 1017 730 L 1018 731 L 1212 731 L 1213 732 L 1212 733 L 1182 733 L 1181 734 L 1180 734 L 1179 733 L 1009 733 L 1008 732 L 1007 732 L 1005 730 L 1005 459 L 1006 458 L 1006 456 L 1007 455 L 1007 453 L 1008 452 L 1008 451 L 1009 450 L 1009 449 L 1013 445 L 1014 445 L 1015 444 L 1016 444 L 1018 442 L 1019 442 L 1020 441 L 1021 441 L 1022 440 L 1024 440 L 1025 439 L 1026 439 L 1027 438 L 1029 438 L 1030 437 L 1031 437 L 1032 436 L 1034 436 L 1035 435 L 1036 435 L 1037 434 L 1039 434 L 1040 433 L 1041 433 L 1042 432 L 1043 432 L 1044 431 L 1046 431 L 1047 430 L 1048 430 L 1049 429 L 1051 429 L 1052 428 L 1054 428 L 1055 427 L 1056 427 L 1057 426 L 1058 426 L 1059 425 L 1061 425 L 1062 424 L 1064 424 L 1065 423 L 1066 423 L 1067 422 L 1069 422 L 1070 421 L 1071 421 L 1072 420 L 1074 420 L 1075 419 L 1077 419 L 1078 418 L 1079 418 L 1080 417 L 1082 417 L 1083 416 L 1084 416 L 1085 415 L 1087 415 L 1088 414 L 1090 414 L 1091 413 L 1092 413 L 1093 412 L 1095 412 L 1096 411 L 1098 411 L 1099 410 L 1100 410 L 1101 409 L 1103 409 L 1104 408 L 1105 408 L 1106 407 L 1108 407 L 1109 406 L 1111 406 L 1112 405 L 1113 405 L 1114 404 L 1116 404 L 1117 403 L 1118 403 L 1121 400 L 1121 387 L 1122 386 L 1179 386 L 1181 388 L 1181 396 L 1182 397 L 1182 399 L 1185 402 L 1185 403 L 1186 403 L 1187 404 L 1188 404 L 1189 405 L 1191 405 L 1192 406 L 1194 406 L 1195 407 L 1196 407 L 1197 408 L 1199 408 L 1200 409 L 1202 409 L 1203 410 L 1204 410 L 1205 411 L 1207 411 L 1208 412 L 1209 412 L 1210 413 L 1212 413 L 1213 414 L 1214 414 L 1215 415 L 1217 415 L 1218 416 L 1220 416 L 1221 417 L 1222 417 L 1223 418 L 1225 418 L 1226 419 L 1227 419 L 1228 420 L 1230 420 L 1231 421 L 1232 421 L 1233 422 L 1235 422 L 1236 423 L 1238 423 L 1239 424 L 1240 424 L 1241 425 L 1243 425 L 1244 426 L 1245 426 L 1246 427 L 1248 427 L 1249 428 L 1251 428 L 1252 429 L 1253 429 L 1254 430 L 1256 430 L 1257 431 L 1258 431 L 1259 432 L 1261 432 L 1262 433 L 1263 433 L 1264 434 L 1266 434 L 1267 435 L 1268 435 L 1269 436 L 1271 436 L 1272 437 L 1273 437 L 1274 438 L 1276 438 L 1277 439 L 1278 439 L 1279 440 L 1281 440 L 1282 441 L 1283 441 L 1284 442 L 1285 442 L 1286 443 L 1287 443 L 1288 444 L 1289 444 L 1292 447 L 1292 448 L 1293 449 L 1293 450 L 1294 451 L 1294 732 L 1293 733 L 1287 733 L 1286 732 L 1286 460 L 1285 459 L 1285 457 L 1284 456 L 1284 454 L 1283 453 L 1283 452 L 1277 446 L 1276 446 L 1275 445 L 1274 445 L 1273 444 L 1200 444 L 1199 443 L 1198 444 L 1197 444 L 1196 443 L 1151 443 L 1150 444 L 1146 444 L 1145 443 L 1144 443 L 1143 444 L 1031 444 L 1030 445 L 1026 445 L 1025 446 L 1027 448 L 1074 448 L 1075 449 L 1077 449 L 1078 448 L 1272 448 L 1273 449 L 1274 449 L 1275 450 L 1276 450 L 1279 453 L 1279 454 L 1280 455 L 1280 456 L 1281 457 L 1281 459 L 1282 460 L 1282 462 L 1283 463 L 1283 736 L 1284 737 L 1296 737 L 1298 735 L 1298 729 L 1297 728 L 1298 727 L 1298 713 L 1297 712 L 1298 711 L 1298 688 L 1297 687 L 1298 686 L 1297 685 L 1297 680 L 1298 679 L 1298 673 L 1297 672 L 1298 671 L 1298 657 L 1297 656 L 1298 655 L 1298 649 L 1297 648 L 1297 647 L 1298 646 L 1297 645 L 1297 644 L 1298 643 L 1297 642 L 1297 640 L 1298 639 L 1298 632 L 1297 631 L 1298 630 L 1298 627 L 1297 626 L 1297 624 L 1298 623 L 1297 622 L 1298 621 L 1297 620 L 1297 608 L 1298 607 L 1298 606 L 1297 605 L 1297 592 L 1298 591 L 1298 590 L 1297 589 L 1298 588 L 1298 587 L 1297 586 L 1297 584 L 1298 583 L 1298 581 L 1297 580 L 1297 579 L 1298 578 L 1298 577 L 1297 576 L 1298 575 L 1297 574 L 1297 565 L 1298 564 L 1297 563 L 1297 560 L 1298 559 L 1298 552 L 1297 551 L 1297 536 L 1298 535 L 1298 526 L 1297 525 L 1297 517 L 1298 516 L 1298 515 L 1297 514 L 1297 512 L 1298 511 L 1298 510 L 1297 509 L 1298 508 L 1298 507 L 1297 506 L 1297 504 L 1298 503 L 1298 483 L 1297 482 L 1297 480 L 1298 479 L 1298 473 L 1297 472 L 1298 471 L 1298 454 L 1297 453 L 1297 449 L 1296 448 L 1296 447 L 1295 446 L 1295 445 L 1291 441 L 1290 441 L 1288 439 L 1286 439 L 1285 438 L 1284 438 L 1283 437 L 1281 437 L 1280 436 L 1279 436 L 1278 435 L 1276 435 L 1275 434 L 1274 434 L 1273 433 L 1271 433 L 1270 432 L 1269 432 L 1268 431 L 1266 431 L 1265 430 L 1264 430 L 1263 429 L 1261 429 L 1260 428 L 1259 428 L 1258 427 L 1256 427 L 1255 426 L 1254 426 L 1253 425 L 1251 425 L 1250 424 L 1249 424 L 1248 423 L 1246 423 L 1245 422 L 1243 422 L 1242 421 L 1241 421 L 1240 420 L 1238 420 L 1237 419 L 1236 419 L 1235 418 L 1233 418 L 1232 417 L 1230 417 L 1229 416 L 1228 416 L 1227 415 L 1225 415 L 1224 414 L 1223 414 L 1222 413 L 1220 413 L 1219 412 L 1218 412 L 1217 411 L 1215 411 L 1214 410 L 1213 410 L 1212 409 L 1210 409 L 1209 408 L 1207 408 L 1206 407 L 1205 407 L 1204 406 L 1202 406 L 1201 405 L 1199 405 L 1198 404 L 1197 404 L 1196 403 L 1194 403 L 1193 402 L 1192 402 L 1191 401 L 1189 401 L 1185 397 L 1185 387 L 1186 386 L 1188 386 L 1189 385 L 1190 385 L 1190 384 L 1191 383 L 1191 377 L 1187 373 L 1164 373 L 1163 372 L 1161 372 L 1160 371 L 1160 370 L 1159 369 L 1159 349 L 1160 348 L 1160 346 L 1162 344 L 1340 344 L 1343 347 L 1343 525 L 1342 526 L 1339 526 L 1338 527 L 1337 527 L 1334 530 L 1334 533 L 1333 534 L 1333 537 L 1335 539 L 1335 540 L 1337 540 L 1339 542 L 1339 544 L 1338 545 L 1338 548 L 1335 551 L 1334 551 L 1333 552 L 1332 552 L 1330 554 L 1329 554 L 1319 564 L 1319 565 L 1317 567 L 1317 568 L 1316 569 L 1316 570 L 1315 571 L 1315 573 L 1314 574 L 1314 576 L 1313 577 L 1313 721 L 1312 722 L 1311 722 L 1309 724 L 1308 724 L 1303 729 L 1303 730 L 1302 731 L 1302 733 L 1303 734 L 1303 735 L 1305 737 L 1306 737 L 1307 738 L 1310 738 L 1311 739 L 1390 739 L 1391 738 L 1393 738 L 1394 737 L 1395 737 L 1396 736 L 1396 735 L 1397 734 L 1398 734 L 1399 735 L 1400 735 L 1401 736 L 1534 736 L 1535 735 L 1535 733 L 1403 733 L 1402 732 L 1400 732 L 1399 731 L 1398 731 L 1396 729 L 1395 729 L 1388 722 L 1388 577 L 1387 576 L 1387 574 L 1386 573 L 1386 571 L 1385 570 L 1385 569 L 1384 568 L 1384 567 L 1382 565 L 1382 564 L 1379 561 L 1379 560 L 1376 557 L 1375 557 L 1372 554 L 1371 554 L 1369 552 L 1368 552 L 1364 548 L 1364 547 L 1363 546 L 1363 542 L 1362 541 L 1363 540 L 1366 540 L 1368 538 L 1368 532 L 1367 531 L 1367 530 L 1364 527 L 1363 527 L 1362 526 L 1359 526 L 1358 525 L 1358 335 L 1357 334 L 1357 332 L 1354 329 L 1352 329 L 1351 328"/>
    <path d="M 170 287 L 169 288 L 167 288 L 165 290 L 165 291 L 164 292 L 164 294 L 163 295 L 163 298 L 162 299 L 162 300 L 161 301 L 161 303 L 160 304 L 160 306 L 159 307 L 159 308 L 158 309 L 158 311 L 157 312 L 157 313 L 156 314 L 156 316 L 155 317 L 155 318 L 154 319 L 154 321 L 153 322 L 153 324 L 152 325 L 152 326 L 151 327 L 151 329 L 150 330 L 150 332 L 149 333 L 149 335 L 148 336 L 148 337 L 147 338 L 147 339 L 146 340 L 146 341 L 145 342 L 145 343 L 143 345 L 143 346 L 141 348 L 141 349 L 133 357 L 132 357 L 114 375 L 113 375 L 113 376 L 112 377 L 111 377 L 97 391 L 97 392 L 96 393 L 95 393 L 94 394 L 93 394 L 92 395 L 88 395 L 87 394 L 86 394 L 85 393 L 84 393 L 83 392 L 81 392 L 80 391 L 80 388 L 79 387 L 78 387 L 77 388 L 77 415 L 74 418 L 74 442 L 77 445 L 78 445 L 80 447 L 80 678 L 79 679 L 71 679 L 70 680 L 69 680 L 67 682 L 67 683 L 66 684 L 66 690 L 67 691 L 67 692 L 68 693 L 68 694 L 69 695 L 70 695 L 71 696 L 71 727 L 70 728 L 0 728 L 0 731 L 87 731 L 88 730 L 88 698 L 89 697 L 89 696 L 92 693 L 92 692 L 93 691 L 93 684 L 92 683 L 92 682 L 90 680 L 88 680 L 87 679 L 85 679 L 84 678 L 84 447 L 85 446 L 87 446 L 92 441 L 92 438 L 93 437 L 93 430 L 92 429 L 93 428 L 93 427 L 92 426 L 92 420 L 90 418 L 90 409 L 91 408 L 91 407 L 90 406 L 91 405 L 91 403 L 90 402 L 90 400 L 91 399 L 92 399 L 93 398 L 95 398 L 96 397 L 97 397 L 129 365 L 130 365 L 149 346 L 149 345 L 151 343 L 152 344 L 155 344 L 156 345 L 158 345 L 159 346 L 161 346 L 162 347 L 163 347 L 164 348 L 166 348 L 167 349 L 170 349 L 171 350 L 173 350 L 174 351 L 177 351 L 178 352 L 180 352 L 181 353 L 184 353 L 185 354 L 188 354 L 189 355 L 190 355 L 191 356 L 193 356 L 194 357 L 196 357 L 197 358 L 199 358 L 200 359 L 203 359 L 204 360 L 206 360 L 207 361 L 209 361 L 210 362 L 212 362 L 213 363 L 215 363 L 216 364 L 219 364 L 221 366 L 221 374 L 222 375 L 222 376 L 225 379 L 226 379 L 227 380 L 228 380 L 229 381 L 228 382 L 225 382 L 224 383 L 223 383 L 221 385 L 220 385 L 219 386 L 219 387 L 217 389 L 217 391 L 216 392 L 216 399 L 215 400 L 215 411 L 214 412 L 214 421 L 213 422 L 213 433 L 212 434 L 212 444 L 211 445 L 211 454 L 210 455 L 210 465 L 209 466 L 209 476 L 208 477 L 208 488 L 207 489 L 207 499 L 206 500 L 206 510 L 205 511 L 205 521 L 204 522 L 204 531 L 203 532 L 203 542 L 202 543 L 202 553 L 201 554 L 201 565 L 200 566 L 200 576 L 199 577 L 199 587 L 198 588 L 198 599 L 197 600 L 197 610 L 196 611 L 196 621 L 195 622 L 195 633 L 194 634 L 194 646 L 193 647 L 193 658 L 192 659 L 192 669 L 191 670 L 191 679 L 190 680 L 190 692 L 189 693 L 189 700 L 187 702 L 185 702 L 184 703 L 182 703 L 181 704 L 180 704 L 177 707 L 177 708 L 176 709 L 176 730 L 178 732 L 615 732 L 616 731 L 616 717 L 613 714 L 611 714 L 610 713 L 559 713 L 558 712 L 558 705 L 557 704 L 556 704 L 555 703 L 473 703 L 472 702 L 472 700 L 471 699 L 471 698 L 472 697 L 472 696 L 475 693 L 489 693 L 490 692 L 511 692 L 512 691 L 535 691 L 536 690 L 537 691 L 538 691 L 539 690 L 561 690 L 562 689 L 567 689 L 569 691 L 569 692 L 571 694 L 571 695 L 574 698 L 575 698 L 577 700 L 578 700 L 579 701 L 581 701 L 582 702 L 583 702 L 584 703 L 587 703 L 588 704 L 623 704 L 624 705 L 625 705 L 626 706 L 626 732 L 627 733 L 627 734 L 629 734 L 630 735 L 673 735 L 674 734 L 675 735 L 677 735 L 678 734 L 679 735 L 680 735 L 681 734 L 687 734 L 688 735 L 690 735 L 691 734 L 692 735 L 693 734 L 694 735 L 695 734 L 696 735 L 710 735 L 711 734 L 965 734 L 966 735 L 986 735 L 987 736 L 987 738 L 989 738 L 990 737 L 990 591 L 991 590 L 994 590 L 996 588 L 996 587 L 997 586 L 997 582 L 996 581 L 996 580 L 994 578 L 993 578 L 992 577 L 961 577 L 959 579 L 959 587 L 962 590 L 964 590 L 965 591 L 965 705 L 964 706 L 954 706 L 953 705 L 953 425 L 954 424 L 961 424 L 963 422 L 963 416 L 961 414 L 960 414 L 959 413 L 956 413 L 955 412 L 955 388 L 954 387 L 954 386 L 951 383 L 950 383 L 949 382 L 922 382 L 921 383 L 919 383 L 916 386 L 916 387 L 915 388 L 915 412 L 914 413 L 913 413 L 912 414 L 911 414 L 911 415 L 910 416 L 910 418 L 909 419 L 909 421 L 910 422 L 910 423 L 912 425 L 915 425 L 916 424 L 917 425 L 917 565 L 916 566 L 885 566 L 884 565 L 884 523 L 885 522 L 887 522 L 889 520 L 889 518 L 890 517 L 890 515 L 889 514 L 889 512 L 887 510 L 886 510 L 884 508 L 884 505 L 883 504 L 883 476 L 882 475 L 882 474 L 880 472 L 880 471 L 879 471 L 878 470 L 877 470 L 876 469 L 854 469 L 853 470 L 852 470 L 849 473 L 849 474 L 848 475 L 848 477 L 847 478 L 847 509 L 846 510 L 844 510 L 840 514 L 840 516 L 839 517 L 839 519 L 840 520 L 840 521 L 842 523 L 846 523 L 847 524 L 847 556 L 846 557 L 843 557 L 842 558 L 834 558 L 833 559 L 825 559 L 824 560 L 816 560 L 815 561 L 807 561 L 806 562 L 799 562 L 798 563 L 790 563 L 789 564 L 781 564 L 780 565 L 772 565 L 771 566 L 763 566 L 762 567 L 755 567 L 754 566 L 754 501 L 752 499 L 751 499 L 750 498 L 720 498 L 719 499 L 718 499 L 715 502 L 715 631 L 714 632 L 675 632 L 674 633 L 672 633 L 668 637 L 668 638 L 667 639 L 667 711 L 668 712 L 668 730 L 667 731 L 666 731 L 665 732 L 664 732 L 663 731 L 633 731 L 632 732 L 631 732 L 629 730 L 629 703 L 627 701 L 605 701 L 604 700 L 606 698 L 607 698 L 608 697 L 608 696 L 612 692 L 612 691 L 613 690 L 613 689 L 614 688 L 614 687 L 615 686 L 615 684 L 616 683 L 616 679 L 617 678 L 617 669 L 616 668 L 616 665 L 615 664 L 615 663 L 614 662 L 614 660 L 612 658 L 612 657 L 604 649 L 603 649 L 602 648 L 601 648 L 600 647 L 598 647 L 597 646 L 594 646 L 593 645 L 584 645 L 583 646 L 581 646 L 580 647 L 578 647 L 576 649 L 575 649 L 574 650 L 573 650 L 572 649 L 569 649 L 568 648 L 566 648 L 565 647 L 562 647 L 561 646 L 559 646 L 558 645 L 555 645 L 554 644 L 552 644 L 551 643 L 549 643 L 548 642 L 546 642 L 545 641 L 542 641 L 541 640 L 539 640 L 538 639 L 536 639 L 535 638 L 532 638 L 531 637 L 529 637 L 528 636 L 526 636 L 525 635 L 523 635 L 522 634 L 519 634 L 518 633 L 516 633 L 515 632 L 513 632 L 512 631 L 509 631 L 508 630 L 506 630 L 505 629 L 503 629 L 502 628 L 499 628 L 498 627 L 496 627 L 495 626 L 493 626 L 492 625 L 489 625 L 488 624 L 486 624 L 485 623 L 482 623 L 481 622 L 478 622 L 477 621 L 475 621 L 474 620 L 472 620 L 471 619 L 468 619 L 467 618 L 464 618 L 463 617 L 460 617 L 459 616 L 454 616 L 452 614 L 451 614 L 449 612 L 448 612 L 447 611 L 446 611 L 445 610 L 444 610 L 443 609 L 441 609 L 440 608 L 438 608 L 437 607 L 434 607 L 433 606 L 425 606 L 424 605 L 423 606 L 415 606 L 414 607 L 411 607 L 410 608 L 408 608 L 407 609 L 405 609 L 404 610 L 403 610 L 402 611 L 401 610 L 401 427 L 402 426 L 402 423 L 403 422 L 403 421 L 406 418 L 407 418 L 408 417 L 410 417 L 411 416 L 415 416 L 416 417 L 418 417 L 419 418 L 421 418 L 422 419 L 424 419 L 425 420 L 427 420 L 428 421 L 430 421 L 431 422 L 433 422 L 434 423 L 436 423 L 437 424 L 439 424 L 440 425 L 442 425 L 443 426 L 445 426 L 446 427 L 448 427 L 449 428 L 450 428 L 451 429 L 452 429 L 453 430 L 455 430 L 456 431 L 458 431 L 459 432 L 462 432 L 463 433 L 465 433 L 466 434 L 468 434 L 469 435 L 470 435 L 471 436 L 473 436 L 474 437 L 476 437 L 477 438 L 479 438 L 480 439 L 481 439 L 482 440 L 484 440 L 485 441 L 487 441 L 488 442 L 490 442 L 491 443 L 493 443 L 494 444 L 496 444 L 497 445 L 498 445 L 499 446 L 501 446 L 502 447 L 505 447 L 506 448 L 507 448 L 508 449 L 511 449 L 512 450 L 513 450 L 514 451 L 516 451 L 517 452 L 518 452 L 519 453 L 519 455 L 518 456 L 518 458 L 517 459 L 517 461 L 516 462 L 516 464 L 515 465 L 515 468 L 514 469 L 514 471 L 513 472 L 513 474 L 512 475 L 512 477 L 511 478 L 511 480 L 510 481 L 510 483 L 509 484 L 509 486 L 508 487 L 508 488 L 507 489 L 507 492 L 506 493 L 506 495 L 505 496 L 505 497 L 504 498 L 504 505 L 505 506 L 505 507 L 506 508 L 507 508 L 508 509 L 514 509 L 516 507 L 516 506 L 518 504 L 518 502 L 519 501 L 519 499 L 520 498 L 520 496 L 521 495 L 521 494 L 522 493 L 522 491 L 523 490 L 523 488 L 524 487 L 524 485 L 525 484 L 525 482 L 526 481 L 526 479 L 527 478 L 527 476 L 528 475 L 528 473 L 529 472 L 529 470 L 530 469 L 530 467 L 531 466 L 531 464 L 532 463 L 532 461 L 533 460 L 533 458 L 534 457 L 534 455 L 535 454 L 535 452 L 536 451 L 536 449 L 537 448 L 537 446 L 538 445 L 538 443 L 539 442 L 539 440 L 540 439 L 540 437 L 541 436 L 541 434 L 542 433 L 542 431 L 543 430 L 543 428 L 544 427 L 544 425 L 545 424 L 545 422 L 546 421 L 546 419 L 547 418 L 547 416 L 548 415 L 548 413 L 549 412 L 549 409 L 550 408 L 550 406 L 551 405 L 551 403 L 552 402 L 552 400 L 553 399 L 553 397 L 554 396 L 554 394 L 555 393 L 555 391 L 556 390 L 556 388 L 557 387 L 557 385 L 558 384 L 558 382 L 559 381 L 559 379 L 560 378 L 560 376 L 561 375 L 561 373 L 562 372 L 562 370 L 563 369 L 563 367 L 564 366 L 564 362 L 565 361 L 565 359 L 562 356 L 561 356 L 560 355 L 559 355 L 558 354 L 555 354 L 554 355 L 554 356 L 553 357 L 553 358 L 552 359 L 552 361 L 551 362 L 551 363 L 550 364 L 550 366 L 549 367 L 549 368 L 548 369 L 548 371 L 547 372 L 547 373 L 546 374 L 546 376 L 545 377 L 545 379 L 544 380 L 544 382 L 543 383 L 543 385 L 542 386 L 542 387 L 541 388 L 541 390 L 540 391 L 540 393 L 539 394 L 539 395 L 538 396 L 538 398 L 537 399 L 537 400 L 536 401 L 534 401 L 533 400 L 531 400 L 530 399 L 528 399 L 527 398 L 525 398 L 524 397 L 521 397 L 520 396 L 518 396 L 517 395 L 515 395 L 514 394 L 512 394 L 511 393 L 509 393 L 508 392 L 506 392 L 505 391 L 503 391 L 502 390 L 500 390 L 499 389 L 497 389 L 496 388 L 493 388 L 492 387 L 490 387 L 489 386 L 486 386 L 485 385 L 483 385 L 482 384 L 480 384 L 479 383 L 477 383 L 476 382 L 474 382 L 473 381 L 471 381 L 470 380 L 468 380 L 467 379 L 464 379 L 463 378 L 461 378 L 460 377 L 458 377 L 457 376 L 455 376 L 454 375 L 451 375 L 450 374 L 448 374 L 447 373 L 445 373 L 444 372 L 442 372 L 441 371 L 439 371 L 438 370 L 436 370 L 435 369 L 433 369 L 432 368 L 429 368 L 428 367 L 426 367 L 425 366 L 423 366 L 422 365 L 419 365 L 418 364 L 416 364 L 415 363 L 413 363 L 412 362 L 409 362 L 408 361 L 406 361 L 405 360 L 403 360 L 402 359 L 400 359 L 399 358 L 397 358 L 396 357 L 394 357 L 393 356 L 391 356 L 390 355 L 387 355 L 386 354 L 384 354 L 383 353 L 381 353 L 380 352 L 378 352 L 377 351 L 375 351 L 374 350 L 371 350 L 370 349 L 368 349 L 367 348 L 365 348 L 364 347 L 362 347 L 361 346 L 358 346 L 357 345 L 355 345 L 354 344 L 352 344 L 351 343 L 348 343 L 347 342 L 346 342 L 345 341 L 343 341 L 342 340 L 339 340 L 338 339 L 336 339 L 335 338 L 333 338 L 332 337 L 330 337 L 329 336 L 327 336 L 326 335 L 324 335 L 323 334 L 321 334 L 320 333 L 318 333 L 317 332 L 315 332 L 314 331 L 312 331 L 311 330 L 309 330 L 308 329 L 306 329 L 305 328 L 303 328 L 302 327 L 299 327 L 298 326 L 296 326 L 295 325 L 292 325 L 291 324 L 289 324 L 288 323 L 285 323 L 284 322 L 282 322 L 281 321 L 278 321 L 277 320 L 275 320 L 274 319 L 271 319 L 270 318 L 268 318 L 267 317 L 265 317 L 264 316 L 262 316 L 261 315 L 259 315 L 258 314 L 255 314 L 254 313 L 252 313 L 251 312 L 248 312 L 247 311 L 245 311 L 244 310 L 242 310 L 241 309 L 238 309 L 237 308 L 235 308 L 234 307 L 231 307 L 230 306 L 228 306 L 227 305 L 225 305 L 224 304 L 222 304 L 221 303 L 219 303 L 218 302 L 215 302 L 214 301 L 212 301 L 211 300 L 209 300 L 208 299 L 206 299 L 205 298 L 203 298 L 202 297 L 200 297 L 199 296 L 197 296 L 196 295 L 194 295 L 193 294 L 191 294 L 190 293 L 187 293 L 186 292 L 184 292 L 183 291 L 181 291 L 180 290 L 178 290 L 177 289 L 174 289 L 173 288 L 171 288"/>
    <path d="M 131 266 L 130 267 L 128 267 L 126 269 L 125 269 L 124 270 L 123 270 L 121 272 L 120 272 L 110 282 L 110 283 L 108 285 L 108 286 L 105 289 L 105 290 L 103 292 L 103 293 L 101 295 L 101 296 L 100 297 L 100 298 L 98 300 L 98 301 L 97 302 L 97 303 L 96 304 L 96 305 L 95 306 L 95 307 L 94 308 L 94 309 L 93 310 L 93 311 L 92 312 L 92 313 L 91 314 L 91 316 L 90 317 L 90 318 L 89 319 L 89 321 L 88 322 L 88 325 L 87 326 L 87 328 L 86 329 L 86 331 L 85 332 L 85 334 L 84 335 L 84 337 L 83 338 L 83 341 L 82 342 L 82 346 L 81 347 L 81 352 L 80 353 L 80 360 L 79 361 L 79 368 L 78 369 L 78 380 L 79 381 L 79 382 L 84 387 L 85 387 L 86 388 L 91 388 L 92 387 L 93 387 L 128 352 L 129 352 L 138 343 L 138 342 L 140 340 L 140 339 L 141 338 L 141 335 L 142 334 L 142 332 L 143 331 L 143 329 L 144 328 L 144 327 L 145 326 L 145 324 L 146 323 L 146 321 L 147 320 L 147 318 L 148 317 L 148 316 L 149 315 L 149 313 L 150 312 L 150 311 L 151 310 L 151 308 L 152 307 L 152 306 L 153 305 L 153 303 L 154 302 L 154 300 L 155 299 L 155 297 L 156 296 L 156 295 L 157 294 L 157 292 L 158 291 L 158 289 L 159 288 L 159 286 L 160 285 L 160 277 L 158 275 L 157 275 L 156 274 L 155 274 L 154 273 L 152 273 L 151 272 L 150 272 L 149 271 L 148 271 L 147 270 L 146 270 L 145 269 L 144 269 L 143 268 L 141 268 L 140 267 L 138 267 L 137 266"/>
  </g>
</svg>
